<?xml version="1.0" encoding="UTF-8" standalone="no"?>
<svg
   xmlns:dc="http://purl.org/dc/elements/1.1/"
   xmlns:cc="http://creativecommons.org/ns#"
   xmlns:rdf="http://www.w3.org/1999/02/22-rdf-syntax-ns#"
   xmlns:svg="http://www.w3.org/2000/svg"
   xmlns="http://www.w3.org/2000/svg"
   xmlns:sodipodi="http://sodipodi.sourceforge.net/DTD/sodipodi-0.dtd"
   xmlns:inkscape="http://www.inkscape.org/namespaces/inkscape"
   version="1.1"
   x="0px"
   y="0px"
   viewBox="0 0 277.92645 146.64424"
   enable-background="new 0 0 100 100"
   xml:space="preserve"
   id="svg10"
   sodipodi:docname="label.svg"
   width="277.92645"
   height="146.64424"
   inkscape:version="0.92.4 (5da689c313, 2019-01-14)"><metadata
   id="metadata16"><rdf:RDF><cc:Work
       rdf:about=""><dc:format>image/svg+xml</dc:format><dc:type
         rdf:resource="http://purl.org/dc/dcmitype/StillImage" /><dc:title></dc:title></cc:Work></rdf:RDF></metadata><defs
   id="defs14" /><sodipodi:namedview
   pagecolor="#ffffff"
   bordercolor="#666666"
   borderopacity="1"
   objecttolerance="10"
   gridtolerance="10"
   guidetolerance="10"
   inkscape:pageopacity="0"
   inkscape:pageshadow="2"
   inkscape:window-width="1918"
   inkscape:window-height="1054"
   id="namedview12"
   showgrid="false"
   fit-margin-top="1"
   fit-margin-left="1"
   fit-margin-right="1"
   fit-margin-bottom="1"
   inkscape:zoom="2.6700352"
   inkscape:cx="59.832357"
   inkscape:cy="68.43562"
   inkscape:window-x="1"
   inkscape:window-y="1"
   inkscape:window-maximized="1"
   inkscape:current-layer="svg10" /><path
   style="stroke-width:1.69941318;stroke:#000000;stroke-opacity:1;fill:#000000;fill-opacity:1"
   d="M 8.7074868,1 C 2.5998321,1.2723535 4.1283162,9.3738574 3.793051,13.308217 3.0714257,30.425786 1.9461924,47.556146 1.0004556,64.625 c -0.066875,9.709687 7.2403889,16.811815 13.9112704,22.804087 17.620323,17.713673 34.735193,36.008223 52.643417,53.391233 8.383404,6.81834 21.617874,6.57201 28.886256,-1.78366 13.900861,-13.89763 28.631121,-27.02962 42.082491,-41.343301 7.96256,-9.753551 3.21395,-24.079324 -5.6629,-31.484001 C 115.04342,46.597689 97.621433,26.560473 79.644987,7.1308594 69.902459,-1.4000564 56.186333,2.6798905 44.609821,1.6170196 32.642383,1.4126463 20.674893,1.1979591 8.7074868,1 Z M 57.76608,10.947266 c 7.388931,-1.4445017 15.763445,0.663461 19.881007,7.390541 17.804184,20.075752 36.138833,39.754626 53.617043,60.074302 4.47376,6.025208 1.70573,14.085663 -4.08032,18.105214 C 113.70152,109.24606 100.86413,122.76228 87.006315,135.03321 78.671051,140.15627 70.236622,131.877 65.306225,125.8849 47.752118,107.70809 29.658638,89.917013 12.330533,71.59375 7.4226697,63.260303 12.231477,53.385877 11.335714,44.433121 c 0.574445,-11.420416 1.14889,-22.840831 1.723335,-34.261246 14.902344,0.258464 29.804688,0.516927 44.707031,0.775391 z"
   id="path2"
   inkscape:connector-curvature="0" /><path
   style="stroke-width:1.69941318;stroke:#000000;stroke-opacity:1;fill:#000000;fill-opacity:1"
   d="m 29.072721,14.015625 c -11.751735,0.06613 -19.045575,15.177949 -12.171875,24.564453 5.361168,8.911408 19.133346,9.408525 25.335937,1.173828 7.686516,-8.55637 2.070308,-23.881185 -9.34375,-25.46875 -1.257494,-0.235165 -2.542112,-0.329474 -3.820312,-0.269531 z m 1.095703,9.089844 c 7.817039,-0.133618 8.707121,12.238335 0.998047,13.361328 -7.154954,1.678837 -10.876155,-9.477801 -4.302734,-12.630859 0.995491,-0.579616 2.163946,-0.784917 3.304687,-0.730469 z"
   id="path4"
   inkscape:connector-curvature="0" />
<g
   transform="matrix(0.32801787,0,0,0.32801787,139.90443,0.3820039)"
   id="g915"
   style="fill:#000000;fill-opacity:1;stroke:#000000;stroke-width:2.30446434;stroke-miterlimit:4;stroke-dasharray:none;stroke-opacity:1"><g
     id="g913"
     style="fill:#000000;fill-opacity:1;stroke:#000000;stroke-width:2.30446434;stroke-miterlimit:4;stroke-dasharray:none;stroke-opacity:1"><path
       style="fill:#000000;fill-opacity:1;stroke:#000000;stroke-width:2.30446434;stroke-miterlimit:4;stroke-dasharray:none;stroke-opacity:1"
       d="M 214.56641,3.8964844 C 206.63051,3.5338214 200.04489,9.5128722 197.07617,16.380859 136.0064,71.71929 74.149416,126.26497 13.582031,182.10352 c -5.9708796,9.55021 4.943297,21.39594 14.938211,20.96134 25.024923,3.5618 50.488468,3.22751 75.794208,3.69686 0.2313,68.43696 -0.45974,136.90934 0.35743,205.32422 2.17714,7.70105 11.11341,10.06229 17.39843,13.17578 10.35691,1.3296 20.86716,-0.43419 31.29101,0.38176 51.66049,-0.28852 103.42539,0.68021 155.02149,-0.50871 4.87745,-2.42936 10.21384,-4.80908 14.20703,-8.51368 5.57403,-8.90476 1.44165,-19.96587 2.75196,-29.82617 0,-60.01237 0,-120.02474 0,-180.03711 27.65218,-0.84409 55.63125,0.52825 82.71093,-5.21093 8.58291,-2.9711 13.88343,-16.35137 5.32956,-22.28944 C 353.02511,124.25516 291.59236,70.252858 231.57617,14.982422 229.03871,8.1287954 221.80165,3.6118758 214.56641,3.8964844 Z m 1.60742,36.8242186 C 266.61512,86.117994 317.05761,131.51405 367.5,176.91016 c -20.79277,1.12611 -41.83983,-0.45984 -62.45898,1.63281 -10.27815,4.83789 -8.16971,18.06874 -8.77915,27.25494 -0.0996,63.57356 -0.0171,127.15299 -0.049,190.72943 -54.2513,0 -108.5026,0 -162.75391,0 -0.33603,-67.76536 0.6655,-135.5738 -0.51171,-203.3125 -0.24861,-7.06083 -4.21062,-15.6563 -12.33008,-15.24804 -15.07427,-1.06193 -30.809861,0.0667 -46.114689,-0.78693 -3.864588,-0.82174 -17.472935,2.00332 -8.693852,-3.54966 C 115.48422,128.92383 165.1614,84.219248 214.83594,39.511719 l 0.74194,0.670459 z"
       id="path911"
       inkscape:connector-curvature="0" /></g></g><g
   transform="matrix(0.32801787,0,0,0.32801787,139.90443,2.3820039)"
   id="g917"
   style="stroke-width:2.30446434;stroke-miterlimit:4;stroke-dasharray:none;stroke:#000000;stroke-opacity:1;fill:#000000;fill-opacity:1" /><g
   transform="matrix(0.32801787,0,0,0.32801787,139.90443,2.3820039)"
   id="g919"
   style="stroke-width:2.30446434;stroke-miterlimit:4;stroke-dasharray:none;stroke:#000000;stroke-opacity:1;fill:#000000;fill-opacity:1" /><g
   transform="matrix(0.32801787,0,0,0.32801787,139.90443,2.3820039)"
   id="g921"
   style="stroke-width:2.30446434;stroke-miterlimit:4;stroke-dasharray:none;stroke:#000000;stroke-opacity:1;fill:#000000;fill-opacity:1" /><g
   transform="matrix(0.32801787,0,0,0.32801787,139.90443,2.3820039)"
   id="g923"
   style="stroke-width:2.30446434;stroke-miterlimit:4;stroke-dasharray:none;stroke:#000000;stroke-opacity:1;fill:#000000;fill-opacity:1" /><g
   transform="matrix(0.32801787,0,0,0.32801787,139.90443,2.3820039)"
   id="g925"
   style="stroke-width:2.30446434;stroke-miterlimit:4;stroke-dasharray:none;stroke:#000000;stroke-opacity:1;fill:#000000;fill-opacity:1" /><g
   transform="matrix(0.32801787,0,0,0.32801787,139.90443,2.3820039)"
   id="g927"
   style="stroke-width:2.30446434;stroke-miterlimit:4;stroke-dasharray:none;stroke:#000000;stroke-opacity:1;fill:#000000;fill-opacity:1" /><g
   transform="matrix(0.32801787,0,0,0.32801787,139.90443,2.3820039)"
   id="g929"
   style="stroke-width:2.30446434;stroke-miterlimit:4;stroke-dasharray:none;stroke:#000000;stroke-opacity:1;fill:#000000;fill-opacity:1" /><g
   transform="matrix(0.32801787,0,0,0.32801787,139.90443,2.3820039)"
   id="g931"
   style="stroke-width:2.30446434;stroke-miterlimit:4;stroke-dasharray:none;stroke:#000000;stroke-opacity:1;fill:#000000;fill-opacity:1" /><g
   transform="matrix(0.32801787,0,0,0.32801787,139.90443,2.3820039)"
   id="g933"
   style="stroke-width:2.30446434;stroke-miterlimit:4;stroke-dasharray:none;stroke:#000000;stroke-opacity:1;fill:#000000;fill-opacity:1" /><g
   transform="matrix(0.32801787,0,0,0.32801787,139.90443,2.3820039)"
   id="g935"
   style="stroke-width:2.30446434;stroke-miterlimit:4;stroke-dasharray:none;stroke:#000000;stroke-opacity:1;fill:#000000;fill-opacity:1" /><g
   transform="matrix(0.32801787,0,0,0.32801787,139.90443,2.3820039)"
   id="g937"
   style="stroke-width:2.30446434;stroke-miterlimit:4;stroke-dasharray:none;stroke:#000000;stroke-opacity:1;fill:#000000;fill-opacity:1" /><g
   transform="matrix(0.32801787,0,0,0.32801787,139.90443,2.3820039)"
   id="g939"
   style="stroke-width:2.30446434;stroke-miterlimit:4;stroke-dasharray:none;stroke:#000000;stroke-opacity:1;fill:#000000;fill-opacity:1" /><g
   transform="matrix(0.32801787,0,0,0.32801787,139.90443,2.3820039)"
   id="g941"
   style="stroke-width:2.30446434;stroke-miterlimit:4;stroke-dasharray:none;stroke:#000000;stroke-opacity:1;fill:#000000;fill-opacity:1" /><g
   transform="matrix(0.32801787,0,0,0.32801787,139.90443,2.3820039)"
   id="g943"
   style="stroke-width:2.30446434;stroke-miterlimit:4;stroke-dasharray:none;stroke:#000000;stroke-opacity:1;fill:#000000;fill-opacity:1" /><g
   transform="matrix(0.32801787,0,0,0.32801787,139.90443,2.3820039)"
   id="g945"
   style="stroke-width:2.30446434;stroke-miterlimit:4;stroke-dasharray:none;stroke:#000000;stroke-opacity:1;fill:#000000;fill-opacity:1" /></svg>