<?xml version="1.0" encoding="UTF-8" standalone="no"?>
<svg
   xmlns:dc="http://purl.org/dc/elements/1.1/"
   xmlns:cc="http://creativecommons.org/ns#"
   xmlns:rdf="http://www.w3.org/1999/02/22-rdf-syntax-ns#"
   xmlns:svg="http://www.w3.org/2000/svg"
   xmlns="http://www.w3.org/2000/svg"
   xmlns:sodipodi="http://sodipodi.sourceforge.net/DTD/sodipodi-0.dtd"
   xmlns:inkscape="http://www.inkscape.org/namespaces/inkscape"
   version="1.1"
   x="0px"
   y="0px"
   viewBox="0 0 139.70413 142.76103"
   enable-background="new 0 0 100 100"
   xml:space="preserve"
   id="svg10"
   sodipodi:docname="label.svg"
   width="139.70413"
   height="142.76103"
   inkscape:version="0.92.4 (5da689c313, 2019-01-14)"><metadata
     id="metadata16"><rdf:RDF><cc:Work
         rdf:about=""><dc:format>image/svg+xml</dc:format><dc:type
           rdf:resource="http://purl.org/dc/dcmitype/StillImage" /><dc:title></dc:title></cc:Work></rdf:RDF></metadata><defs
     id="defs14" /><sodipodi:namedview
     pagecolor="#ffffff"
     bordercolor="#666666"
     borderopacity="1"
     objecttolerance="10"
     gridtolerance="10"
     guidetolerance="10"
     inkscape:pageopacity="0"
     inkscape:pageshadow="2"
     inkscape:window-width="1918"
     inkscape:window-height="1054"
     id="namedview12"
     showgrid="false"
     fit-margin-top="1"
     fit-margin-left="1"
     fit-margin-right="1"
     fit-margin-bottom="1"
     inkscape:zoom="5.3400704"
     inkscape:cx="57.884636"
     inkscape:cy="66.550459"
     inkscape:window-x="1"
     inkscape:window-y="1"
     inkscape:window-maximized="1"
     inkscape:current-layer="svg10" /><path
     d="m 79.557301,141.76103 c -4.426971,0 -9.037479,-1.75719 -13.704067,-5.2257 -0.108763,-0.0799 -0.209028,-0.16824 -0.302496,-0.26171 L 9.414024,78.947319 C 2.201714,73.211799 -0.39328927,64.779311 1.703786,53.880975 L 4.246108,3.4219998 c 0.06968,-1.373126 1.159,-2.44375677 2.588207,-2.421664 l 48.921006,0.846308 c 10.942521,-1.42410887 19.25775,1.668824 24.651687,9.1071552 l 53.694662,59.802348 c 0.0833,0.09177 0.15635,0.186936 0.22602,0.288901 6.43228,9.647568 5.76441,18.785313 -1.93903,26.422482 l -40.72304,39.52834 c -0.0527,0.0527 -0.10706,0.10027 -0.16314,0.14615 -3.742111,3.06405 -7.762923,4.61901 -11.945179,4.61901 z M 69.04983,132.55871 c 3.714917,2.72586 7.246297,4.10408 10.509171,4.10408 2.989267,0 5.811993,-1.11312 8.636417,-3.40053 L 128.8182,93.82908 c 5.93605,-5.890166 6.37959,-12.19329 1.36802,-19.803262 L 76.52045,14.259158 C 76.45757,14.191178 76.401491,14.118106 76.343711,14.041633 72.025502,8.0087158 65.426681,5.6907158 56.239654,6.9244898 c -0.129156,0.01699 -0.265109,0.01869 -0.385767,0.02379 L 9.210094,6.1410608 6.786731,54.319424 c -0.0068,0.122357 -0.02379,0.246414 -0.04588,0.365373 -1.799679,9.144543 0.149548,15.806242 5.954744,20.35897 0.08667,0.06628 0.169941,0.142751 0.246414,0.222623 z"
     id="path2"
     inkscape:connector-curvature="0"
     style="stroke-width:1.69941318" /><path
     d="m 27.862853,41.701281 c -3.726813,0 -6.957398,-1.4479 -9.601684,-4.301215 -2.562715,-2.487941 -3.906951,-5.67604 -3.906951,-9.379061 0,-4.042904 1.344236,-7.400944 4.000418,-9.984052 2.588207,-2.661281 5.805196,-4.036106 9.509916,-4.036106 3.70812,0 7.03727,1.344236 9.890585,3.99532 2.698668,2.623894 4.046302,5.983634 4.046302,10.024838 0,3.703021 -1.347634,6.89112 -4.002117,9.472529 -2.860113,2.792136 -6.206257,4.207747 -9.936469,4.207747 z m 0,-22.602195 c -2.306104,0 -4.238336,0.829314 -5.905461,2.542322 -1.702812,1.658627 -2.506634,3.728513 -2.506634,6.379597 0,2.306104 0.803822,4.211146 2.455652,5.818791 1.755494,1.891447 3.670732,2.763246 5.954743,2.763246 2.389375,0 4.474555,-0.902389 6.376199,-2.759847 1.660326,-1.611044 2.462449,-3.514387 2.462449,-5.82219 0,-2.651084 -0.803822,-4.72097 -2.459051,-6.330314 -1.864256,-1.731702 -3.96643,-2.591605 -6.377897,-2.591605 z"
     id="path4"
     inkscape:connector-curvature="0"
     style="stroke-width:1.69941318" /><circle
     style="opacity:1;vector-effect:none;fill:none;fill-opacity:1;stroke:#000000;stroke-width:8.17078495;stroke-linecap:butt;stroke-linejoin:miter;stroke-miterlimit:4;stroke-dasharray:none;stroke-dashoffset:0.93127561;stroke-opacity:1;paint-order:normal"
     id="path903"
     cx="78.920189"
     cy="82.005402"
     r="32.656784" /><text
     xml:space="preserve"
     style="font-style:normal;font-variant:normal;font-weight:bold;font-stretch:condensed;font-size:53.33333206px;line-height:1.25;font-family:'Nimbus Sans L';-inkscape-font-specification:'Nimbus Sans L, Bold Condensed';font-variant-ligatures:normal;font-variant-caps:normal;font-variant-numeric:normal;font-feature-settings:normal;text-align:start;letter-spacing:0px;word-spacing:0px;writing-mode:lr-tb;text-anchor:start;fill:#000000;fill-opacity:1;stroke:none"
     x="66.092644"
     y="100.45084"
     id="text907"><tspan
       sodipodi:role="line"
       id="tspan905"
       x="66.092644"
       y="100.45084"
       style="font-style:normal;font-variant:normal;font-weight:bold;font-stretch:condensed;font-size:53.33333206px;font-family:'Nimbus Sans L';-inkscape-font-specification:'Nimbus Sans L, Bold Condensed';font-variant-ligatures:normal;font-variant-caps:normal;font-variant-numeric:normal;font-feature-settings:normal;text-align:start;writing-mode:lr-tb;text-anchor:start">1</tspan></text>
</svg>